<?xml version="1.0" standalone="no"?>
<!DOCTYPE svg PUBLIC "-//W3C//DTD SVG 20010904//EN"
 "http://www.w3.org/TR/2001/REC-SVG-20010904/DTD/svg10.dtd">
<svg version="1.0" xmlns="http://www.w3.org/2000/svg"
 width="3947.000000pt" height="2560.000000pt" viewBox="0 0 3947.000000 2560.000000"
 preserveAspectRatio="xMidYMid meet">

<g transform="translate(0.000000,2560.000000) scale(0.100000,-0.100000)"
fill="#000000" stroke="none">
<path d="M24095 24074 c-568 -64 -1229 -312 -1810 -677 -246 -155 -457 -321
-659 -517 -764 -742 -1249 -1725 -1327 -2685 -12 -153 -7 -506 9 -575 l8 -35
194 -3 c518 -7 1002 121 1494 397 742 416 1461 1176 1865 1971 229 451 351
848 413 1350 14 115 18 715 5 763 -9 32 -10 32 -192 11z"/>
<path d="M23800 19574 c-372 -23 -671 -71 -1043 -168 -277 -72 -485 -138 -916
-293 -645 -232 -1070 -368 -1287 -414 -76 -16 -117 -19 -173 -14 -219 19 -596
129 -1191 348 -1073 394 -1624 517 -2184 487 -671 -36 -1258 -188 -1841 -475
-773 -381 -1422 -947 -1896 -1655 -409 -612 -689 -1273 -845 -2000 -341 -1584
-137 -3485 576 -5378 378 -1006 819 -1838 1408 -2662 707 -988 1239 -1563
1783 -1926 452 -302 913 -430 1380 -384 360 36 783 153 1337 369 555 217 914
313 1372 368 203 24 605 24 795 -1 433 -55 808 -156 1300 -351 849 -337 1435
-435 1960 -329 302 61 599 188 885 377 508 337 1017 899 1721 1902 559 797
973 1609 1323 2595 l53 151 -51 21 c-188 80 -498 250 -691 380 -396 267 -808
655 -1087 1024 -471 623 -734 1332 -798 2148 -13 168 -13 580 1 743 98 1197
647 2165 1655 2918 62 47 188 135 281 196 92 60 169 113 170 117 2 4 -29 50
-69 102 -240 321 -546 630 -853 862 -33 25 -121 86 -195 135 -649 434 -1445
698 -2370 787 -163 16 -417 25 -510 20z"/>
</g>
</svg>
