<?xml version="1.0" encoding="UTF-8"?><svg id="Layer_1" xmlns="http://www.w3.org/2000/svg" xmlns:xlink="http://www.w3.org/1999/xlink" viewBox="0 0 2084.99 287.24"><defs><style>.cls-1{fill:url(#linear-gradient-2);}.cls-2{fill:#fff;}.cls-3{fill:url(#radial-gradient);isolation:isolate;opacity:.44;}.cls-4{fill:#1572b6;}.cls-5{fill:#f16529;}.cls-6{fill:#fdd83c;}.cls-7{fill:#a9b9cb;}.cls-8{fill:#33a9dc;}.cls-9{fill:#813084;}.cls-10{fill:#ebebeb;}.cls-11{fill:#7f8b99;}.cls-12{fill:#5c8dbc;}.cls-13{fill:#1b598e;}.cls-14{fill:#d4b830;}.cls-15{fill:#e44d26;}.cls-16{fill:#0074bd;}.cls-17{fill:#1a4674;}.cls-18{fill:#6a1577;}.cls-19{fill:url(#linear-gradient);}.cls-20{fill:#ea2d2e;}.cls-21{fill:#9a4993;}</style><linearGradient id="linear-gradient" x1="2961.84" y1="-214.87" x2="3192.37" y2="-16.52" gradientTransform="translate(-36.77 148.1) scale(.56)" gradientUnits="userSpaceOnUse"><stop offset="0" stop-color="#5a9fd4"/><stop offset="1" stop-color="#306998"/></linearGradient><linearGradient id="linear-gradient-2" x1="3281.37" y1="103.53" x2="3199.05" y2="-12.93" gradientTransform="translate(-36.77 148.1) scale(.56)" gradientUnits="userSpaceOnUse"><stop offset="0" stop-color="#ffd43b"/><stop offset="1" stop-color="#ffe873"/></linearGradient><radialGradient id="radial-gradient" cx="1181.59" cy="2169.37" fx="1181.59" fy="2169.37" r="61.4" gradientTransform="translate(-534.46 548.84) rotate(-90) scale(.24 1.05)" gradientUnits="userSpaceOnUse"><stop offset="0" stop-color="#b8b8b8" stop-opacity=".5"/><stop offset="1" stop-color="#7f7f7f" stop-opacity="0"/></radialGradient></defs><path class="cls-7" d="M254.99,84.38c0-4.83-1.03-9.09-3.12-12.75-2.05-3.6-5.11-6.62-9.23-9C208.7,43.03,174.72,23.48,140.78,3.86c-9.15-5.29-18.02-5.1-27.1,.27C100.17,12.11,32.52,50.92,12.36,62.62,4.05,67.43,.01,74.8,.01,84.37c-.01,39.42,0,78.84-.01,118.26,0,4.72,.99,8.9,2.98,12.51,2.05,3.71,5.16,6.81,9.36,9.25,20.16,11.69,87.82,50.5,101.33,58.48,9.09,5.37,17.96,5.56,27.11,.27,33.94-19.62,67.92-39.16,101.87-58.77,4.21-2.44,7.32-5.54,9.36-9.24,1.99-3.6,2.98-7.79,2.98-12.51,0,0,0-78.82-.01-118.24"/><path class="cls-11" d="M127.89,143.12L2.98,215.14c2.05,3.71,5.16,6.81,9.36,9.25,20.16,11.69,87.82,50.5,101.33,58.48,9.09,5.37,17.96,5.56,27.11,.27,33.94-19.62,67.92-39.16,101.87-58.77,4.21-2.44,7.32-5.54,9.36-9.24l-124.13-72.01"/><path class="cls-11" d="M90.89,164.45c7.27,12.71,20.93,21.28,36.61,21.28s29.51-8.68,36.74-21.52l-36.35-21.09-37,21.33"/><path class="cls-11" d="M254.99,84.38c0-4.83-1.03-9.09-3.12-12.75l-123.98,71.49,124.13,72.01c1.99-3.6,2.98-7.79,2.98-12.51,0,0,0-78.82-.01-118.24"/><path class="cls-2" d="M164.24,164.2c-7.23,12.84-20.97,21.52-36.74,21.52s-29.34-8.57-36.61-21.28c-3.65-6.38-5.57-13.6-5.56-20.95,0-23.32,18.88-42.23,42.17-42.23,15.57,0,29.17,8.46,36.47,21.04l36.86-21.25c-14.65-25.32-42-42.36-73.33-42.36-46.77,0-84.68,37.97-84.68,84.8,0,15.36,4.08,29.77,11.22,42.2,14.61,25.46,42.04,42.6,73.47,42.6s58.95-17.21,73.55-42.74l-36.8-21.35"/><path class="cls-12" d="M527.43,84.52c0-4.83-1.03-9.09-3.12-12.75-2.05-3.6-5.11-6.62-9.23-9-33.95-19.6-67.93-39.14-101.86-58.77-9.15-5.29-18.02-5.1-27.1,.27-13.51,7.98-81.16,46.79-101.32,58.49-8.3,4.81-12.34,12.18-12.34,21.75-.01,39.42,0,78.84-.01,118.26,0,4.72,.99,8.9,2.98,12.51,2.05,3.71,5.16,6.81,9.36,9.25,20.16,11.69,87.82,50.5,101.33,58.48,9.09,5.37,17.96,5.56,27.11,.27,33.94-19.62,67.92-39.16,101.87-58.77,4.21-2.44,7.32-5.54,9.36-9.24,1.99-3.6,2.98-7.79,2.98-12.51,0,0,0-78.82-.01-118.24"/><path class="cls-17" d="M400.33,143.25l-124.91,72.02c2.05,3.71,5.16,6.81,9.36,9.25,20.16,11.69,87.82,50.5,101.33,58.48,9.09,5.37,17.96,5.56,27.11,.27,33.94-19.62,67.92-39.16,101.87-58.77,4.21-2.44,7.32-5.54,9.36-9.24l-124.13-72.01"/><path class="cls-17" d="M363.34,164.59c7.27,12.71,20.93,21.28,36.61,21.28s29.51-8.68,36.74-21.52l-36.35-21.09-37,21.33"/><path class="cls-13" d="M527.43,84.52c0-4.83-1.03-9.09-3.12-12.75l-123.98,71.49,124.13,72.01c1.99-3.6,2.98-7.79,2.98-12.51,0,0,0-78.82-.01-118.24"/><path class="cls-2" d="M520.6,148.4h-9.7v9.72h-9.7v-9.72h-9.7v-9.71h9.7v-9.71h9.7v9.71h9.7v9.71m-35.39,0h-9.7v9.72h-9.7v-9.72h-9.7v-9.71h9.7v-9.71h9.7v9.71h9.7v9.71"/><path class="cls-2" d="M436.69,164.34c-7.23,12.84-20.97,21.52-36.74,21.52s-29.34-8.57-36.61-21.28c-3.65-6.38-5.57-13.6-5.56-20.95,0-23.32,18.88-42.23,42.17-42.23,15.57,0,29.17,8.46,36.47,21.04l36.86-21.25c-14.65-25.32-42-42.36-73.33-42.36-46.77,0-84.68,37.97-84.68,84.8,0,15.36,4.08,29.77,11.22,42.2,14.61,25.46,42.04,42.6,73.47,42.6s58.95-17.21,73.55-42.74l-36.8-21.35"/><path class="cls-21" d="M799.98,84.53c0-4.8-1.02-9.12-3.14-12.74-2.04-3.62-5.11-6.6-9.19-8.96-33.94-19.58-67.95-39.15-101.89-58.73-9.19-5.27-17.99-5.11-27.1,.24-13.51,7.94-81.23,46.78-101.34,58.49-8.33,4.8-12.33,12.19-12.33,21.78v118.24c0,4.72,1.02,8.88,2.99,12.5,2.04,3.7,5.19,6.84,9.35,9.28,20.19,11.71,87.83,50.47,101.34,58.49,9.11,5.34,17.99,5.58,27.1,.24,33.94-19.65,67.95-39.15,101.89-58.73,4.24-2.44,7.31-5.5,9.35-9.28,1.96-3.62,2.99-7.78,2.99-12.5V84.53Z"/><path class="cls-18" d="M672.8,143.26l-124.99,72.01c2.04,3.7,5.19,6.84,9.35,9.28,20.19,11.71,87.83,50.47,101.34,58.49,9.11,5.35,17.99,5.58,27.1,.24,33.94-19.65,67.95-39.15,101.89-58.73,4.24-2.44,7.31-5.5,9.35-9.28l-124.04-72.01Z"/><path class="cls-18" d="M635.8,164.56c7.31,12.74,20.98,21.31,36.61,21.31s29.54-8.65,36.77-21.54l-36.37-21.07-37,21.3Z"/><path class="cls-9" d="M799.98,84.53c0-4.8-1.02-9.12-3.14-12.74l-124.04,71.46,124.2,72.01c1.96-3.62,2.99-7.78,2.99-12.5V84.53Z"/><g><path class="cls-2" d="M709.17,164.33c-7.23,12.81-20.97,21.54-36.77,21.54s-29.38-8.57-36.61-21.31c-3.54-6.21-5.58-13.29-5.58-20.91,0-23.35,18.85-42.22,42.19-42.22,15.55,0,29.15,8.49,36.45,21.07l36.84-21.23c-14.69-25.31-42.03-42.37-73.37-42.37-46.82,0-84.69,37.97-84.69,84.75,0,15.33,4.08,29.8,11.23,42.22,14.61,25.39,42.11,42.53,73.53,42.53s59-17.22,73.61-42.77l-36.84-21.31Zm46.58-40.72h-8.41v40.64h8.41v-40.64Zm18.62,0h-8.41v40.64h8.41v-40.64Z"/><path class="cls-2" d="M781.21,130.44h-40.61v8.41h40.61v-8.41Zm0,18.55h-40.61v8.41h40.61v-8.41Z"/></g><path class="cls-4" d="M864.61,256.77l-21.84-243.01h240l-21.86,242.97-98.28,27.03-98.01-26.99Z"/><path class="cls-8" d="M962.77,263.1l79.42-21.84,18.68-207.63h-98.1v229.47Z"/><path class="cls-2" d="M962.77,121.67h39.76l2.75-30.52h-42.5v-29.8h75.34l-.72,8-7.39,82.13h-67.23v-29.8Z"/><path class="cls-10" d="M962.95,199.07l-.13,.04-33.46-8.96-2.14-23.77h-30.16l4.21,46.8,61.54,16.94,.14-.04v-31.01Z"/><path class="cls-2" d="M999.97,150.21l-3.62,39.91-33.51,8.97v31.01l61.59-16.93,.45-5.04,5.23-57.93h-30.14Z"/><path class="cls-10" d="M962.87,61.34v29.8h-72.57l-.6-6.7-1.37-15.11-.72-8h75.26Zm-.1,60.33v29.8h-33.04l-.6-6.7-1.37-15.11-.72-8h35.73Z"/><path class="cls-15" d="M1127.24,257.34l-21.84-243.01h240l-21.87,242.97-98.28,27.03-98.01-26.99Z"/><path class="cls-5" d="M1225.4,263.67l79.42-21.84,18.69-207.63h-98.1v229.47Z"/><path class="cls-10" d="M1225.4,124.32h-39.76l-2.75-30.52h42.5v-29.8h-75.34l.72,8,7.38,82.13h67.24v-29.8Zm0,77.4l-.13,.04-33.46-8.97-2.14-23.77h-30.16l4.21,46.8,61.55,16.95,.14-.04v-31.01Z"/><path class="cls-2" d="M1225.3,124.32v29.8h37l-3.49,38.65-33.51,8.97v31.01l61.6-16.93,.45-5.03,7.06-78.47,.73-8h-69.84Zm0-60.32v29.8h72.57l.6-6.7,1.37-15.11,.72-8h-75.27Z"/><path class="cls-19" d="M1752.63,19.21c-9.69,.05-18.95,.87-27.09,2.31-23.99,4.24-28.35,13.11-28.35,29.47v21.61h56.7v7.2h-77.97c-16.48,0-30.9,9.9-35.42,28.75-5.21,21.59-5.44,35.07,0,57.62,4.03,16.79,13.65,28.74,30.13,28.74h19.5v-25.9c0-18.71,16.19-35.22,35.42-35.22h56.63c15.76,0,28.35-12.98,28.35-28.81V51c0-15.37-12.96-26.91-28.35-29.47-9.74-1.62-19.85-2.36-29.54-2.31Zm-30.66,17.38c5.85,0,10.64,4.86,10.64,10.84s-4.78,10.77-10.64,10.77-10.64-4.81-10.64-10.77c0-5.98,4.76-10.84,10.64-10.84Z"/><path class="cls-1" d="M1817.59,79.81v25.18c0,19.52-16.55,35.94-35.42,35.94h-56.63c-15.51,0-28.35,13.28-28.35,28.81v53.99c0,15.36,13.36,24.4,28.35,28.81,17.95,5.27,35.16,6.23,56.63,0,14.27-4.14,28.35-12.45,28.35-28.81v-21.61h-56.63v-7.2h84.98c16.48,0,22.62-11.49,28.35-28.74,5.92-17.76,5.66-34.84,0-57.62-4.07-16.4-11.85-28.75-28.35-28.75h-21.28Zm-31.85,136.72c5.88,0,10.64,4.81,10.64,10.77s-4.76,10.83-10.64,10.83-10.64-4.86-10.64-10.83,4.78-10.77,10.64-10.77Z"/><path class="cls-3" d="M1830.51,265.68c0,8.13-34.02,14.73-75.98,14.73s-75.98-6.6-75.98-14.73,34.02-14.73,75.98-14.73,75.98,6.59,75.98,14.73Z"/><path class="cls-16" d="M1961.27,206.33s-9.45,5.5,6.73,7.35c19.61,2.24,29.63,1.92,51.23-2.16,0,0,5.69,3.56,13.62,6.64-48.44,20.75-109.63-1.2-71.59-11.83Zm-5.92-27.09s-10.6,7.85,5.6,9.52c20.95,2.16,37.48,2.34,66.12-3.17,0,0,3.95,4.01,10.17,6.21-58.56,17.13-123.78,1.35-81.88-12.56Z"/><path class="cls-20" d="M2005.25,133.29c11.94,13.75-3.13,26.11-3.13,26.11,0,0,30.31-15.64,16.39-35.24-13-18.27-22.97-27.34,30.99-58.63,0,0-84.7,21.15-44.25,67.77Z"/><path class="cls-16" d="M2069.32,226.37s7,5.77-7.71,10.23c-27.95,8.47-116.37,11.02-140.93,.34-8.82-3.84,7.73-9.17,12.94-10.29,5.43-1.18,8.53-.96,8.53-.96-9.82-6.91-63.46,13.58-27.24,19.46,98.76,16.01,180.02-7.21,154.41-18.77Zm-103.5-75.2s-44.97,10.68-15.92,14.57c12.27,1.64,36.71,1.26,59.49-.65,18.61-1.56,37.29-4.9,37.29-4.9,0,0-6.56,2.81-11.31,6.05-45.68,12.01-133.89,6.42-108.49-5.86,21.47-10.39,38.94-9.2,38.94-9.2Zm80.67,45.09c46.43-24.12,24.96-47.3,9.97-44.17-3.66,.76-5.31,1.43-5.31,1.43,0,0,1.36-2.14,3.96-3.06,29.64-10.42,52.43,30.73-9.56,47.03,0,0,.71-.65,.93-1.22Z"/><path class="cls-20" d="M2038.51,20.98s5.71,19.72-44.39,59.26c-40.17,31.73-9.16,49.81-.01,70.49-23.45-21.16-40.65-39.78-29.12-57.12,16.94-25.44,83.89-31.78,73.52-72.63Z"/><path class="cls-16" d="M1970.39,261.64c44.55,2.85,112.99-1.59,114.61-22.67,0,0-3.11,7.99-36.82,14.33-38.03,7.16-84.95,6.33-112.76,1.73,0,0,5.7,4.72,34.98,6.6Z"/><path class="cls-14" d="M1388.9,256.76l-21.84-243.01h240l-21.87,242.97-98.28,27.03-98.01-26.99Z"/><path class="cls-6" d="M1487.05,263.09l79.42-21.84,18.69-207.63h-98.1v229.47Z"/><g><polygon class="cls-2" points="1411.47 66.45 1478.56 66.45 1478.56 233.05 1403.58 218.28 1399.72 171.42 1429.72 171.42 1431.72 195.42 1448.72 197.42 1448.72 96.42 1414.26 96.27 1411.47 66.45"/><polygon class="cls-2" points="1494.97 66.45 1574.07 66.45 1571.41 96.26 1526.39 96.26 1526.39 126.78 1568.73 126.78 1560.4 218.28 1494.97 233.05 1494.72 202.42 1532.72 195.42 1535.72 156.42 1494.97 156.58 1494.97 66.45"/></g></svg>