<?xml version="1.0" standalone="no"?>
<!DOCTYPE svg PUBLIC "-//W3C//DTD SVG 20010904//EN"
 "http://www.w3.org/TR/2001/REC-SVG-20010904/DTD/svg10.dtd">
<svg version="1.0" xmlns="http://www.w3.org/2000/svg"
 width="320.000000pt" height="435.000000pt" viewBox="0 0 320.000000 435.000000"
 preserveAspectRatio="xMidYMid meet">

<g transform="translate(0.000000,435.000000) scale(0.100000,-0.100000)"
fill="#000000" stroke="none">
<path d="M690 3860 l0 -310 100 0 100 0 0 114 0 113 98 5 c60 3 108 11 127 20
92 48 130 167 86 263 -42 91 -82 104 -323 105 l-188 0 0 -310z m322 163 c10
-9 18 -30 18 -49 0 -43 -30 -64 -92 -64 l-48 0 0 65 0 65 52 0 c34 0 58 -6 70
-17z"/>
<path d="M1320 3860 l0 -310 95 0 95 0 0 125 0 125 105 0 105 0 0 -125 0 -125
95 0 95 0 0 310 0 310 -95 0 -95 0 0 -110 0 -110 -105 0 -105 0 0 110 0 110
-95 0 -95 0 0 -310z"/>
<path d="M2040 3861 l0 -311 95 0 95 0 0 115 0 115 78 0 c152 0 229 45 251
149 20 94 -10 174 -80 216 -30 18 -55 20 -236 23 l-203 3 0 -310z m320 159
c11 -11 20 -31 20 -45 0 -43 -33 -65 -95 -65 l-55 0 0 65 0 65 55 0 c42 0 60
-5 75 -20z"/>
<path d="M174 3253 c4 -43 11 -121 16 -173 19 -186 54 -552 70 -735 6 -66 15
-165 20 -220 5 -55 14 -152 20 -215 16 -165 28 -293 45 -470 21 -210 41 -422
65 -690 6 -63 15 -162 21 -220 5 -58 11 -120 12 -139 2 -33 4 -35 67 -53 92
-26 201 -56 305 -83 87 -23 183 -49 350 -94 111 -31 284 -76 386 -102 l85 -22
125 32 c178 47 252 66 354 94 221 60 296 80 380 102 50 13 138 37 198 54 59
17 114 31 122 31 11 0 15 12 15 47 0 25 6 105 14 177 8 72 20 185 26 251 6 66
15 165 20 220 5 55 14 152 20 215 6 63 15 160 20 215 5 55 14 154 20 220 11
111 25 258 50 510 5 55 14 150 19 210 37 399 50 543 61 650 5 50 12 129 16
178 l6 87 -1467 0 -1467 0 6 -77z m2692 -210 c-4 -49 -11 -133 -16 -188 -21
-219 -43 -467 -70 -780 -13 -149 -27 -312 -40 -450 -5 -60 -21 -240 -35 -400
-14 -159 -29 -333 -35 -385 -5 -52 -12 -136 -15 -186 -4 -50 -10 -96 -15 -103
-6 -11 -945 -290 -977 -291 -10 0 -13 68 -15 292 l-3 292 -48 -82 c-26 -45
-52 -82 -59 -82 -20 0 -343 92 -352 100 -5 5 61 130 151 287 89 153 170 294
180 313 11 19 46 78 77 131 31 53 56 103 56 112 0 15 -14 17 -109 17 l-108 0
-7 63 c-3 34 -11 96 -16 137 -5 41 -13 103 -16 138 l-7 62 132 0 131 0 0 160
0 160 -454 0 -454 0 -11 103 c-6 56 -16 140 -21 186 -5 46 -7 87 -4 92 3 5
216 9 475 9 l469 0 0 190 0 190 611 0 611 0 -6 -87z"/>
</g>
</svg>
